<svg xmlns="http://www.w3.org/2000/svg" xmlns:xlink="http://www.w3.org/1999/xlink" width="220" zoomAndPan="magnify" viewBox="0 0 165 74.999997" height="100" preserveAspectRatio="xMidYMid meet" version="1.0"><defs><g/></defs><g fill="#ffffff" fill-opacity="1"><g transform="translate(50.988279, 43.666316)"><g><path d="M 4.828125 -10.421875 C 5.921875 -10.421875 6.878906 -10.203125 7.703125 -9.765625 C 8.523438 -9.328125 9.160156 -8.710938 9.609375 -7.921875 C 10.054688 -7.140625 10.28125 -6.234375 10.28125 -5.203125 C 10.28125 -4.191406 10.054688 -3.289062 9.609375 -2.5 C 9.160156 -1.707031 8.519531 -1.09375 7.6875 -0.65625 C 6.863281 -0.21875 5.910156 0 4.828125 0 L 0.921875 0 L 0.921875 -10.421875 Z M 4.65625 -2.203125 C 5.613281 -2.203125 6.359375 -2.460938 6.890625 -2.984375 C 7.429688 -3.503906 7.703125 -4.242188 7.703125 -5.203125 C 7.703125 -6.171875 7.429688 -6.921875 6.890625 -7.453125 C 6.359375 -7.984375 5.613281 -8.25 4.65625 -8.25 L 3.453125 -8.25 L 3.453125 -2.203125 Z M 4.65625 -2.203125 "/></g></g></g><g fill="#ffffff" fill-opacity="1"><g transform="translate(61.77406, 43.666316)"><g><path d="M 8.734375 -4.28125 C 8.734375 -4.039062 8.71875 -3.789062 8.6875 -3.53125 L 2.9375 -3.53125 C 2.976562 -3.019531 3.144531 -2.625 3.4375 -2.34375 C 3.726562 -2.070312 4.085938 -1.9375 4.515625 -1.9375 C 5.148438 -1.9375 5.585938 -2.207031 5.828125 -2.75 L 8.53125 -2.75 C 8.394531 -2.195312 8.144531 -1.703125 7.78125 -1.265625 C 7.425781 -0.835938 6.972656 -0.5 6.421875 -0.25 C 5.878906 0 5.269531 0.125 4.59375 0.125 C 3.789062 0.125 3.070312 -0.046875 2.4375 -0.390625 C 1.800781 -0.742188 1.304688 -1.238281 0.953125 -1.875 C 0.597656 -2.519531 0.421875 -3.273438 0.421875 -4.140625 C 0.421875 -5.003906 0.59375 -5.753906 0.9375 -6.390625 C 1.289062 -7.035156 1.785156 -7.53125 2.421875 -7.875 C 3.054688 -8.226562 3.78125 -8.40625 4.59375 -8.40625 C 5.394531 -8.40625 6.109375 -8.234375 6.734375 -7.890625 C 7.359375 -7.554688 7.847656 -7.078125 8.203125 -6.453125 C 8.554688 -5.828125 8.734375 -5.101562 8.734375 -4.28125 Z M 6.125 -4.9375 C 6.125 -5.375 5.972656 -5.722656 5.671875 -5.984375 C 5.378906 -6.242188 5.015625 -6.375 4.578125 -6.375 C 4.148438 -6.375 3.789062 -6.25 3.5 -6 C 3.207031 -5.75 3.023438 -5.394531 2.953125 -4.9375 Z M 6.125 -4.9375 "/></g></g></g><g fill="#ffffff" fill-opacity="1"><g transform="translate(70.913048, 43.666316)"><g><path d="M 6.015625 -8.375 C 6.960938 -8.375 7.722656 -8.054688 8.296875 -7.421875 C 8.867188 -6.796875 9.15625 -5.9375 9.15625 -4.84375 L 9.15625 0 L 6.640625 0 L 6.640625 -4.5 C 6.640625 -5.050781 6.492188 -5.476562 6.203125 -5.78125 C 5.921875 -6.09375 5.535156 -6.25 5.046875 -6.25 C 4.554688 -6.25 4.164062 -6.09375 3.875 -5.78125 C 3.59375 -5.476562 3.453125 -5.050781 3.453125 -4.5 L 3.453125 0 L 0.921875 0 L 0.921875 -10.984375 L 3.453125 -10.984375 L 3.453125 -7.171875 C 3.710938 -7.535156 4.066406 -7.828125 4.515625 -8.046875 C 4.960938 -8.265625 5.460938 -8.375 6.015625 -8.375 Z M 6.015625 -8.375 "/></g></g></g><g fill="#ffffff" fill-opacity="1"><g transform="translate(80.912517, 43.666316)"><g><path d="M 2.203125 -9.140625 C 1.753906 -9.140625 1.390625 -9.269531 1.109375 -9.53125 C 0.828125 -9.800781 0.6875 -10.128906 0.6875 -10.515625 C 0.6875 -10.910156 0.828125 -11.238281 1.109375 -11.5 C 1.390625 -11.757812 1.753906 -11.890625 2.203125 -11.890625 C 2.628906 -11.890625 2.984375 -11.757812 3.265625 -11.5 C 3.554688 -11.238281 3.703125 -10.910156 3.703125 -10.515625 C 3.703125 -10.128906 3.554688 -9.800781 3.265625 -9.53125 C 2.984375 -9.269531 2.628906 -9.140625 2.203125 -9.140625 Z M 3.453125 -8.28125 L 3.453125 0 L 0.921875 0 L 0.921875 -8.28125 Z M 3.453125 -8.28125 "/></g></g></g><g fill="#ffffff" fill-opacity="1"><g transform="translate(85.289138, 43.666316)"><g><path d="M 0.421875 -4.15625 C 0.421875 -5.007812 0.578125 -5.753906 0.890625 -6.390625 C 1.210938 -7.035156 1.648438 -7.53125 2.203125 -7.875 C 2.765625 -8.226562 3.382812 -8.40625 4.0625 -8.40625 C 4.644531 -8.40625 5.15625 -8.285156 5.59375 -8.046875 C 6.039062 -7.804688 6.382812 -7.492188 6.625 -7.109375 L 6.625 -8.28125 L 9.15625 -8.28125 L 9.15625 0 L 6.625 0 L 6.625 -1.171875 C 6.375 -0.785156 6.023438 -0.472656 5.578125 -0.234375 C 5.140625 0.00390625 4.628906 0.125 4.046875 0.125 C 3.378906 0.125 2.765625 -0.0507812 2.203125 -0.40625 C 1.648438 -0.757812 1.210938 -1.257812 0.890625 -1.90625 C 0.578125 -2.550781 0.421875 -3.300781 0.421875 -4.15625 Z M 6.625 -4.140625 C 6.625 -4.773438 6.445312 -5.273438 6.09375 -5.640625 C 5.738281 -6.003906 5.3125 -6.1875 4.8125 -6.1875 C 4.300781 -6.1875 3.867188 -6.003906 3.515625 -5.640625 C 3.171875 -5.285156 3 -4.789062 3 -4.15625 C 3 -3.519531 3.171875 -3.015625 3.515625 -2.640625 C 3.867188 -2.273438 4.300781 -2.09375 4.8125 -2.09375 C 5.3125 -2.09375 5.738281 -2.273438 6.09375 -2.640625 C 6.445312 -3.003906 6.625 -3.503906 6.625 -4.140625 Z M 6.625 -4.140625 "/></g></g></g><g fill="#ffffff" fill-opacity="1"><g transform="translate(95.362788, 43.666316)"><g><path d="M 2.109375 0.125 C 1.660156 0.125 1.296875 -0.00390625 1.015625 -0.265625 C 0.734375 -0.535156 0.59375 -0.863281 0.59375 -1.25 C 0.59375 -1.644531 0.734375 -1.972656 1.015625 -2.234375 C 1.296875 -2.503906 1.660156 -2.640625 2.109375 -2.640625 C 2.546875 -2.640625 2.90625 -2.503906 3.1875 -2.234375 C 3.46875 -1.972656 3.609375 -1.644531 3.609375 -1.25 C 3.609375 -0.863281 3.46875 -0.535156 3.1875 -0.265625 C 2.90625 -0.00390625 2.546875 0.125 2.109375 0.125 Z M 2.109375 0.125 "/></g></g></g><g fill="#ffffff" fill-opacity="1"><g transform="translate(99.546541, 43.666316)"><g><path d="M 0.421875 -4.15625 C 0.421875 -5.007812 0.578125 -5.753906 0.890625 -6.390625 C 1.210938 -7.035156 1.648438 -7.53125 2.203125 -7.875 C 2.765625 -8.226562 3.382812 -8.40625 4.0625 -8.40625 C 4.644531 -8.40625 5.15625 -8.285156 5.59375 -8.046875 C 6.039062 -7.804688 6.382812 -7.492188 6.625 -7.109375 L 6.625 -8.28125 L 9.15625 -8.28125 L 9.15625 0 L 6.625 0 L 6.625 -1.171875 C 6.375 -0.785156 6.023438 -0.472656 5.578125 -0.234375 C 5.140625 0.00390625 4.628906 0.125 4.046875 0.125 C 3.378906 0.125 2.765625 -0.0507812 2.203125 -0.40625 C 1.648438 -0.757812 1.210938 -1.257812 0.890625 -1.90625 C 0.578125 -2.550781 0.421875 -3.300781 0.421875 -4.15625 Z M 6.625 -4.140625 C 6.625 -4.773438 6.445312 -5.273438 6.09375 -5.640625 C 5.738281 -6.003906 5.3125 -6.1875 4.8125 -6.1875 C 4.300781 -6.1875 3.867188 -6.003906 3.515625 -5.640625 C 3.171875 -5.285156 3 -4.789062 3 -4.15625 C 3 -3.519531 3.171875 -3.015625 3.515625 -2.640625 C 3.867188 -2.273438 4.300781 -2.09375 4.8125 -2.09375 C 5.3125 -2.09375 5.738281 -2.273438 6.09375 -2.640625 C 6.445312 -3.003906 6.625 -3.503906 6.625 -4.140625 Z M 6.625 -4.140625 "/></g></g></g><g fill="#ffffff" fill-opacity="1"><g transform="translate(109.620191, 43.666316)"><g><path d="M 2.203125 -9.140625 C 1.753906 -9.140625 1.390625 -9.269531 1.109375 -9.53125 C 0.828125 -9.800781 0.6875 -10.128906 0.6875 -10.515625 C 0.6875 -10.910156 0.828125 -11.238281 1.109375 -11.5 C 1.390625 -11.757812 1.753906 -11.890625 2.203125 -11.890625 C 2.628906 -11.890625 2.984375 -11.757812 3.265625 -11.5 C 3.554688 -11.238281 3.703125 -10.910156 3.703125 -10.515625 C 3.703125 -10.128906 3.554688 -9.800781 3.265625 -9.53125 C 2.984375 -9.269531 2.628906 -9.140625 2.203125 -9.140625 Z M 3.453125 -8.28125 L 3.453125 0 L 0.921875 0 L 0.921875 -8.28125 Z M 3.453125 -8.28125 "/></g></g></g></svg>